<svg
	width="375"
	height="852"
	viewBox="0 0 375 852"
	fill="none"
	xmlns="http://www.w3.org/2000/svg"
>
	<path
		d="M108 932C108 1118.11 -43.9924 1269 -231.5 1269C-419.008 1269 -571 1118.11 -571 932C-571 745.887 -419.008 595 -231.5 595C-43.9924 595 108 745.887 108 932Z"
		stroke="white"
		stroke-opacity="0.29"
		stroke-width="2"
	/>
	<path
		d="M734 665C734 787.601 633.942 887 510.5 887C387.058 887 287 787.601 287 665C287 542.399 387.058 443 510.5 443C633.942 443 734 542.399 734 665Z"
		stroke="white"
		stroke-opacity="0.29"
		stroke-width="2"
	/>
	<path
		d="M869 -103C869 83.113 717.008 234 529.5 234C341.992 234 190 83.113 190 -103C190 -289.113 341.992 -440 529.5 -440C717.008 -440 869 -289.113 869 -103Z"
		stroke="white"
		stroke-opacity="0.29"
		stroke-width="2"
	/>
</svg>
